<svg width="291" height="62" viewBox="0 0 291 62" fill="none" xmlns="http://www.w3.org/2000/svg">
<g filter="url(#filter0_d)">
<g filter="url(#filter1_d)">
<path d="M71.0486 43C70.3446 43 69.7526 42.76 69.2726 42.28C68.7926 41.8 68.5526 41.208 68.5526 40.504V10.12H58.1846C57.5126 10.12 56.9526 9.912 56.5046 9.496C56.0886 9.048 55.8806 8.488 55.8806 7.816C55.8806 7.144 56.0886 6.6 56.5046 6.184C56.9526 5.736 57.5126 5.512 58.1846 5.512H83.8646C84.5366 5.512 85.0806 5.736 85.4966 6.184C85.9446 6.6 86.1686 7.144 86.1686 7.816C86.1686 8.488 85.9446 9.048 85.4966 9.496C85.0806 9.912 84.5366 10.12 83.8646 10.12H73.5446V40.504C73.5446 41.208 73.3046 41.8 72.8246 42.28C72.3446 42.76 71.7526 43 71.0486 43ZM92.9542 43C92.2502 43 91.6582 42.776 91.1782 42.328C90.7302 41.848 90.5062 41.256 90.5062 40.552V19.192C90.5062 18.456 90.7302 17.864 91.1782 17.416C91.6582 16.968 92.2502 16.744 92.9542 16.744C93.6902 16.744 94.2822 16.968 94.7302 17.416C95.1782 17.864 95.4022 18.456 95.4022 19.192V40.552C95.4022 41.256 95.1782 41.848 94.7302 42.328C94.2822 42.776 93.6902 43 92.9542 43ZM92.9542 12.472C92.0902 12.472 91.3382 12.168 90.6982 11.56C90.0902 10.92 89.7862 10.168 89.7862 9.304C89.7862 8.44 90.0902 7.704 90.6982 7.096C91.3382 6.456 92.0902 6.136 92.9542 6.136C93.8182 6.136 94.5542 6.456 95.1622 7.096C95.8022 7.704 96.1222 8.44 96.1222 9.304C96.1222 10.168 95.8022 10.92 95.1622 11.56C94.5542 12.168 93.8182 12.472 92.9542 12.472ZM106.239 43.048C105.535 43.048 104.943 42.824 104.463 42.376C104.015 41.896 103.791 41.304 103.791 40.6V19.24C103.791 18.504 104.015 17.912 104.463 17.464C104.943 17.016 105.535 16.792 106.239 16.792C106.975 16.792 107.567 17.016 108.015 17.464C108.463 17.912 108.687 18.472 108.687 19.144C109.519 18.312 110.511 17.672 111.663 17.224C112.815 16.744 114.063 16.504 115.407 16.504C118.767 16.504 121.295 17.768 122.991 20.296C123.919 19.112 125.103 18.184 126.543 17.512C127.983 16.84 129.599 16.504 131.391 16.504C134.143 16.504 136.383 17.4 138.111 19.192C139.839 20.984 140.703 23.544 140.703 26.872V40.6C140.703 41.304 140.479 41.896 140.031 42.376C139.583 42.824 138.991 43.048 138.255 43.048C137.551 43.048 136.959 42.824 136.479 42.376C136.031 41.896 135.807 41.304 135.807 40.6V26.872C135.807 24.856 135.311 23.368 134.319 22.408C133.327 21.416 132.031 20.92 130.431 20.92C128.767 20.92 127.391 21.496 126.303 22.648C125.247 23.8 124.719 25.272 124.719 27.064V40.6C124.719 41.304 124.495 41.896 124.047 42.376C123.599 42.824 123.007 43.048 122.271 43.048C121.567 43.048 120.975 42.824 120.495 42.376C120.047 41.896 119.823 41.304 119.823 40.6V26.872C119.823 24.856 119.327 23.368 118.335 22.408C117.343 21.416 116.047 20.92 114.447 20.92C112.783 20.92 111.407 21.496 110.319 22.648C109.231 23.8 108.687 25.272 108.687 27.064V40.6C108.687 41.304 108.463 41.896 108.015 42.376C107.567 42.824 106.975 43.048 106.239 43.048ZM160.453 43.192C157.797 43.192 155.429 42.632 153.349 41.512C151.301 40.36 149.685 38.792 148.501 36.808C147.349 34.792 146.773 32.488 146.773 29.896C146.773 27.272 147.317 24.968 148.405 22.984C149.525 20.968 151.061 19.4 153.013 18.28C154.965 17.128 157.205 16.552 159.733 16.552C162.229 16.552 164.373 17.112 166.165 18.232C167.957 19.32 169.317 20.84 170.245 22.792C171.205 24.712 171.685 26.936 171.685 29.464C171.685 30.072 171.477 30.584 171.061 31C170.645 31.384 170.117 31.576 169.477 31.576H151.237C151.589 33.784 152.597 35.592 154.261 37C155.957 38.376 158.021 39.064 160.453 39.064C161.445 39.064 162.453 38.888 163.477 38.536C164.533 38.152 165.381 37.72 166.021 37.24C166.501 36.888 167.013 36.712 167.557 36.712C168.133 36.68 168.629 36.84 169.045 37.192C169.589 37.672 169.877 38.2 169.909 38.776C169.941 39.352 169.685 39.848 169.141 40.264C168.053 41.128 166.693 41.832 165.061 42.376C163.461 42.92 161.925 43.192 160.453 43.192ZM159.733 20.68C157.365 20.68 155.461 21.336 154.021 22.648C152.581 23.96 151.669 25.656 151.285 27.736H167.269C166.981 25.688 166.197 24.008 164.917 22.696C163.637 21.352 161.909 20.68 159.733 20.68ZM188.177 43.192C185.617 43.192 183.329 42.616 181.312 41.464C179.328 40.28 177.76 38.696 176.608 36.712C175.488 34.696 174.928 32.424 174.928 29.896C174.928 27.304 175.488 25 176.608 22.984C177.728 20.968 179.264 19.4 181.216 18.28C183.168 17.128 185.408 16.552 187.936 16.552C191.713 16.552 194.849 17.992 197.345 20.872C197.793 21.384 197.953 21.912 197.825 22.456C197.697 23 197.345 23.48 196.769 23.896C196.321 24.216 195.825 24.328 195.281 24.232C194.737 24.104 194.24 23.816 193.793 23.368C192.225 21.704 190.273 20.872 187.936 20.872C185.472 20.872 183.472 21.704 181.936 23.368C180.4 25 179.632 27.176 179.632 29.896C179.632 31.624 179.984 33.16 180.688 34.504C181.424 35.848 182.432 36.92 183.712 37.72C184.993 38.488 186.481 38.872 188.177 38.872C190.353 38.872 192.113 38.312 193.457 37.192C193.969 36.776 194.497 36.552 195.041 36.52C195.585 36.456 196.065 36.6 196.481 36.952C197.024 37.4 197.328 37.912 197.393 38.488C197.457 39.032 197.264 39.528 196.816 39.976C194.512 42.12 191.633 43.192 188.177 43.192ZM215.325 43.192C212.989 43.192 210.893 42.616 209.037 41.464C207.181 40.28 205.709 38.696 204.621 36.712C203.565 34.696 203.037 32.424 203.037 29.896C203.037 27.368 203.613 25.096 204.765 23.08C205.949 21.064 207.533 19.48 209.517 18.328C211.533 17.144 213.789 16.552 216.285 16.552C218.781 16.552 221.021 17.144 223.005 18.328C224.989 19.48 226.557 21.064 227.709 23.08C228.893 25.096 229.485 27.368 229.485 29.896V40.6C229.485 41.304 229.245 41.896 228.765 42.376C228.317 42.824 227.741 43.048 227.037 43.048C226.333 43.048 225.741 42.824 225.261 42.376C224.813 41.896 224.589 41.304 224.589 40.6V38.824C223.469 40.168 222.109 41.24 220.509 42.04C218.941 42.808 217.213 43.192 215.325 43.192ZM216.285 38.872C217.917 38.872 219.373 38.488 220.653 37.72C221.933 36.92 222.941 35.848 223.677 34.504C224.413 33.128 224.781 31.592 224.781 29.896C224.781 28.168 224.413 26.632 223.677 25.288C222.941 23.912 221.933 22.84 220.653 22.072C219.373 21.272 217.917 20.872 216.285 20.872C214.685 20.872 213.229 21.272 211.917 22.072C210.637 22.84 209.613 23.912 208.845 25.288C208.109 26.632 207.741 28.168 207.741 29.896C207.741 31.592 208.109 33.128 208.845 34.504C209.613 35.848 210.637 36.92 211.917 37.72C213.229 38.488 214.685 38.872 216.285 38.872ZM245.603 43.192C243.363 43.192 241.283 42.856 239.363 42.184C237.475 41.48 236.003 40.6 234.947 39.544C234.467 39.032 234.259 38.456 234.323 37.816C234.419 37.144 234.739 36.6 235.283 36.184C235.923 35.672 236.547 35.464 237.155 35.56C237.795 35.624 238.339 35.896 238.787 36.376C239.331 36.984 240.195 37.56 241.379 38.104C242.595 38.616 243.939 38.872 245.411 38.872C247.267 38.872 248.675 38.568 249.635 37.96C250.627 37.352 251.139 36.568 251.171 35.608C251.203 34.648 250.739 33.816 249.779 33.112C248.851 32.408 247.139 31.832 244.643 31.384C241.411 30.744 239.059 29.784 237.587 28.504C236.147 27.224 235.427 25.656 235.427 23.8C235.427 22.168 235.907 20.824 236.867 19.768C237.827 18.68 239.059 17.88 240.563 17.368C242.067 16.824 243.635 16.552 245.267 16.552C247.379 16.552 249.251 16.888 250.883 17.56C252.515 18.232 253.811 19.16 254.771 20.344C255.219 20.856 255.427 21.4 255.395 21.976C255.363 22.52 255.091 22.984 254.579 23.368C254.067 23.72 253.459 23.832 252.755 23.704C252.051 23.576 251.459 23.288 250.979 22.84C250.179 22.072 249.315 21.544 248.387 21.256C247.459 20.968 246.387 20.824 245.171 20.824C243.763 20.824 242.563 21.064 241.571 21.544C240.611 22.024 240.131 22.728 240.131 23.656C240.131 24.232 240.275 24.76 240.563 25.24C240.883 25.688 241.491 26.104 242.387 26.488C243.283 26.84 244.595 27.192 246.323 27.544C249.939 28.248 252.435 29.256 253.811 30.568C255.219 31.848 255.923 33.432 255.923 35.32C255.923 36.792 255.523 38.12 254.723 39.304C253.955 40.488 252.803 41.432 251.267 42.136C249.763 42.84 247.875 43.192 245.603 43.192ZM263.842 43.048C263.138 43.048 262.546 42.824 262.066 42.376C261.618 41.896 261.394 41.304 261.394 40.6V19.192C261.394 18.456 261.618 17.864 262.066 17.416C262.546 16.968 263.138 16.744 263.842 16.744C264.578 16.744 265.17 16.968 265.618 17.416C266.066 17.864 266.29 18.456 266.29 19.192V19.72C267.282 18.728 268.482 17.944 269.89 17.368C271.298 16.792 272.818 16.504 274.45 16.504C276.658 16.504 278.626 16.984 280.354 17.944C282.114 18.872 283.49 20.248 284.482 22.072C285.506 23.896 286.018 26.136 286.018 28.792V40.6C286.018 41.304 285.778 41.896 285.298 42.376C284.85 42.824 284.274 43.048 283.57 43.048C282.866 43.048 282.274 42.824 281.794 42.376C281.346 41.896 281.122 41.304 281.122 40.6V28.792C281.122 26.072 280.386 24.088 278.914 22.84C277.474 21.56 275.666 20.92 273.49 20.92C272.146 20.92 270.93 21.192 269.842 21.736C268.754 22.28 267.89 23.016 267.25 23.944C266.61 24.84 266.29 25.88 266.29 27.064V40.6C266.29 41.304 266.066 41.896 265.618 42.376C265.17 42.824 264.578 43.048 263.842 43.048ZM263.842 33.448C263.138 33.448 262.546 33.224 262.066 32.776C261.618 32.296 261.394 31.704 261.394 31V7.96C261.394 7.224 261.618 6.632 262.066 6.184C262.546 5.736 263.138 5.512 263.842 5.512C264.578 5.512 265.17 5.736 265.618 6.184C266.066 6.632 266.29 7.224 266.29 7.96V31C266.29 31.704 266.066 32.296 265.618 32.776C265.17 33.224 264.578 33.448 263.842 33.448Z" fill="#BB6BD9"/>
</g>
<path fill-rule="evenodd" clip-rule="evenodd" d="M15.2593 27.2593V54L4 42.7407V16L4.00001 16H30.7408L42 27.2593H15.2593H15.2593Z" fill="url(#paint0_linear)"/>
<path fill-rule="evenodd" clip-rule="evenodd" d="M37.7407 26.7407L37.7407 0L49 11.2593V38H49H22.2592L11 26.7407L37.7407 26.7407H37.7407Z" fill="white"/>
</g>
<defs>
<filter id="filter0_d" x="0" y="0" width="290.018" height="62" filterUnits="userSpaceOnUse" color-interpolation-filters="sRGB">
<feFlood flood-opacity="0" result="BackgroundImageFix"/>
<feColorMatrix in="SourceAlpha" type="matrix" values="0 0 0 0 0 0 0 0 0 0 0 0 0 0 0 0 0 0 127 0"/>
<feOffset dy="4"/>
<feGaussianBlur stdDeviation="2"/>
<feColorMatrix type="matrix" values="0 0 0 0 0 0 0 0 0 0 0 0 0 0 0 0 0 0 0.25 0"/>
<feBlend mode="normal" in2="BackgroundImageFix" result="effect1_dropShadow"/>
<feBlend mode="normal" in="SourceGraphic" in2="effect1_dropShadow" result="shape"/>
</filter>
<filter id="filter1_d" x="51.8809" y="5.51199" width="238.137" height="45.68" filterUnits="userSpaceOnUse" color-interpolation-filters="sRGB">
<feFlood flood-opacity="0" result="BackgroundImageFix"/>
<feColorMatrix in="SourceAlpha" type="matrix" values="0 0 0 0 0 0 0 0 0 0 0 0 0 0 0 0 0 0 127 0"/>
<feOffset dy="4"/>
<feGaussianBlur stdDeviation="2"/>
<feColorMatrix type="matrix" values="0 0 0 0 0 0 0 0 0 0 0 0 0 0 0 0 0 0 0.25 0"/>
<feBlend mode="normal" in2="BackgroundImageFix" result="effect1_dropShadow"/>
<feBlend mode="normal" in="SourceGraphic" in2="effect1_dropShadow" result="shape"/>
</filter>
<linearGradient id="paint0_linear" x1="30.7407" y1="16" x2="15.2593" y2="54" gradientUnits="userSpaceOnUse">
<stop stop-color="#BB6BD9"/>
<stop offset="1" stop-color="#9B51E0"/>
</linearGradient>
</defs>
</svg>
